<svg width="1920" height="362" viewBox="0 0 1920 362" fill="none" xmlns="http://www.w3.org/2000/svg">
<path d="M0 21.7312C0 15.7951 7.20824 12.8581 11.3563 17.104L43.3955 49.899C44.604 51.1361 45.2806 52.7969 45.2806 54.5263V307.409C45.2806 311.066 48.2448 314.031 51.9013 314.031H133.861C135.478 314.031 137.04 314.623 138.251 315.695L169.642 343.505C174.204 347.546 171.346 355.082 165.252 355.082H6.62068C2.96418 355.082 0 352.118 0 348.461V21.7312Z" fill="white"/>
<path d="M421.724 355.082C418.565 355.082 416.003 352.521 416.003 349.361V334.946C416.003 330.984 406.186 328.016 403.558 330.981C396.85 338.75 387.582 345.813 375.754 352.169C364.103 358.349 350.333 361.439 334.445 361.439C314.321 361.439 296.049 356.672 279.632 347.137C263.391 337.602 250.416 324.272 240.706 307.145C231.174 289.841 226.407 269.624 226.407 246.494C226.407 223.363 231.174 203.235 240.706 186.108C250.416 168.804 263.391 155.385 279.632 145.851C296.049 136.139 314.321 131.284 334.445 131.284C350.157 131.284 363.75 134.109 375.224 139.759C386.876 145.409 396.144 151.942 403.028 159.358C405.199 161.638 415.474 158.564 415.474 155.415V141.85C415.474 139.525 417.359 137.64 419.684 137.64H454.399C458.055 137.64 461.019 140.605 461.019 144.261V348.461C461.019 352.118 458.055 355.082 454.399 355.082H421.724ZM271.953 246.494C271.953 262.208 275.395 275.804 282.28 287.281C289.165 298.758 298.08 307.674 309.025 314.031C320.146 320.21 331.974 323.3 344.508 323.3C357.924 323.3 369.928 320.122 380.52 313.766C391.112 307.409 399.498 298.493 405.676 287.016C411.855 275.362 414.944 261.855 414.944 246.494C414.944 231.132 411.855 217.713 405.676 206.236C399.498 194.583 391.112 185.578 380.52 179.222C369.928 172.689 357.924 169.422 344.508 169.422C331.974 169.422 320.146 172.6 309.025 178.957C298.08 185.313 289.165 194.23 282.28 205.707C275.395 217.184 271.953 230.779 271.953 246.494Z" fill="white"/>
<path d="M644.128 131.284C658.427 131.284 672.285 134.285 685.701 140.289C699.294 146.292 710.416 155.827 719.066 168.893C727.893 181.782 732.306 198.644 732.306 219.479V348.461C732.306 352.118 729.342 355.082 725.685 355.082H692.322C688.665 355.082 685.701 352.118 685.701 348.461V228.484C685.701 206.943 680.67 191.317 670.608 181.605C660.545 171.718 647.57 166.774 631.682 166.774C621.267 166.774 611.205 169.775 601.495 175.779C591.962 181.605 584.107 189.727 577.928 200.145C571.749 210.386 568.66 222.039 568.66 235.105V348.461C568.66 352.118 565.696 355.082 562.039 355.082H529.206C525.549 355.082 522.585 352.118 522.585 348.461V144.261C522.585 140.605 525.549 137.64 529.206 137.64H564.209C566.667 137.64 568.66 139.633 568.66 142.092V152.544C568.66 156.165 579.075 159.27 581.635 156.709C588.697 149.647 597.7 143.643 608.645 138.7C619.59 133.756 631.418 131.284 644.128 131.284Z" fill="white"/>
<path d="M888.413 361.439C868.465 361.439 850.547 356.672 834.659 347.137C818.948 337.602 806.502 324.272 797.322 307.145C788.319 289.841 783.818 269.624 783.818 246.494C783.818 223.363 788.319 203.235 797.322 186.108C806.502 168.804 818.948 155.385 834.659 145.851C850.547 136.139 868.465 131.284 888.413 131.284C904.478 131.284 918.6 134.109 930.781 139.759C942.962 145.233 952.671 151.677 959.909 159.093C961.798 161.029 972.355 157.844 972.355 155.139V6.63454C972.355 0.735455 979.486 -2.21866 983.657 1.95285L1016.76 35.0577C1018 36.2994 1018.69 37.9835 1018.69 39.7394V348.461C1018.69 352.118 1015.73 355.082 1012.07 355.082H978.922C975.734 355.082 973.149 352.498 973.149 349.309V337.993C973.149 333.449 961.835 329.923 958.585 333.1C950.994 340.692 941.197 347.313 929.192 352.964C917.188 358.614 903.595 361.439 888.413 361.439ZM899.005 323.3C912.422 323.3 924.691 320.122 935.812 313.766C946.934 307.409 955.76 298.493 962.292 287.016C969 275.362 972.355 261.855 972.355 246.494C972.355 231.132 969 217.713 962.292 206.236C955.76 194.583 946.934 185.578 935.812 179.222C924.691 172.689 912.422 169.422 899.005 169.422C886.648 169.422 875.173 172.6 864.581 178.957C853.989 185.313 845.428 194.23 838.896 205.707C832.541 217.184 829.363 230.779 829.363 246.494C829.363 262.208 832.541 275.804 838.896 287.281C845.428 298.758 853.989 307.674 864.581 314.031C875.173 320.21 886.648 323.3 899.005 323.3Z" fill="white"/>
<path d="M1105.86 255.763C1102.17 255.763 1099.16 258.788 1099.48 262.466C1100.39 272.934 1103.1 282.618 1107.62 291.518C1113.09 302.289 1121.21 310.852 1131.98 317.209C1142.93 323.565 1156.34 326.743 1172.23 326.743C1185.65 326.743 1197.04 324.801 1206.39 320.917C1215.92 316.856 1223.69 312.088 1229.69 306.615C1232.5 303.972 1234.94 301.465 1237.01 299.093C1240.04 295.631 1245.73 295.301 1248.62 298.875L1262.07 315.485C1263.91 317.764 1264.06 321.001 1262.27 323.326C1257.02 330.156 1250.84 336.239 1243.73 341.575C1235.43 347.931 1225.28 352.787 1213.28 356.142C1201.27 359.673 1186.62 361.439 1169.32 361.439C1146.02 361.439 1125.8 356.495 1108.68 346.607C1091.73 336.543 1078.67 322.682 1069.49 305.026C1060.31 287.192 1055.72 266.799 1055.72 243.845C1055.72 222.657 1060.05 203.588 1068.7 186.638C1077.35 169.511 1089.88 156.003 1106.3 146.115C1122.89 136.228 1142.84 131.284 1166.14 131.284C1187.5 131.284 1206.04 135.786 1221.75 144.791C1237.64 153.619 1249.91 166.156 1258.56 182.4C1267.38 198.644 1271.8 218.066 1271.8 240.667C1271.8 242.08 1271.71 244.64 1271.53 248.348C1271.5 248.903 1271.48 249.433 1271.45 249.936C1271.26 253.271 1268.5 255.763 1265.16 255.763H1105.86ZM1221.06 221.068C1224.78 221.068 1227.79 217.989 1227.15 214.325C1226.21 208.972 1224.32 203.274 1221.48 197.232C1217.6 188.58 1211.25 181.164 1202.42 174.984C1193.59 168.804 1181.68 165.714 1166.67 165.714C1151.14 165.714 1138.6 168.716 1129.07 174.719C1119.71 180.723 1112.83 188.05 1108.42 196.702C1105.34 202.611 1103.16 208.349 1101.89 213.916C1101.02 217.711 1104.09 221.068 1107.99 221.068H1221.06Z" fill="white"/>
<path d="M1443.14 235.942C1441.15 238.383 1441.15 241.886 1443.15 244.32L1525.12 344.262C1528.66 348.584 1525.59 355.082 1520 355.082H1484.2C1482.2 355.082 1480.3 354.173 1479.04 352.611L1416.56 274.905C1413.9 271.605 1408.88 271.61 1406.23 274.914L1344 352.601C1342.74 354.17 1340.84 355.082 1338.83 355.082H1306.14C1300.52 355.082 1297.46 348.521 1301.06 344.211L1382.48 246.95C1384.51 244.529 1384.54 241.014 1382.57 238.552L1310.15 148.409C1306.67 144.075 1309.75 137.64 1315.31 137.64H1351.49C1353.53 137.64 1355.45 138.577 1356.71 140.181L1408.6 206.516C1411.24 209.886 1416.33 209.908 1419 206.561L1471.89 140.137C1473.15 138.559 1475.05 137.64 1477.07 137.64H1509.21C1514.79 137.64 1517.86 144.115 1514.34 148.441L1443.14 235.942Z" fill="white"/>
<path d="M1590.33 355.082C1586.67 355.082 1583.71 352.118 1583.71 348.461V153.692C1583.71 147.783 1590.86 144.833 1595.03 149.023L1627.86 182.052C1629.09 183.293 1629.78 184.971 1629.78 186.72V348.461C1629.78 352.118 1626.82 355.082 1623.16 355.082H1590.33ZM1607.28 63.2172C1598.98 63.2172 1591.83 60.3038 1585.83 54.4771C1580 48.4738 1577.09 41.3229 1577.09 33.0242C1577.09 24.7256 1580 17.5746 1585.83 11.5713C1591.83 5.56806 1598.98 2.56642 1607.28 2.56642C1612.75 2.56642 1617.78 3.97896 1622.37 6.80404C1627.14 9.62912 1630.93 13.337 1633.76 17.9278C1636.58 22.3419 1637.99 27.3741 1637.99 33.0242C1637.99 41.3229 1634.99 48.4738 1628.99 54.4771C1622.99 60.3038 1615.75 63.2172 1607.28 63.2172Z" fill="white"/>
<path d="M1880.71 355.082C1877.55 355.082 1874.98 352.521 1874.98 349.361V334.946C1874.98 330.984 1865.17 328.016 1862.54 330.981C1855.83 338.75 1846.56 345.813 1834.73 352.169C1823.08 358.349 1809.31 361.439 1793.43 361.439C1773.3 361.439 1755.03 356.672 1738.61 347.137C1722.37 337.602 1709.4 324.272 1699.69 307.145C1690.15 289.841 1685.39 269.624 1685.39 246.494C1685.39 223.363 1690.15 203.235 1699.69 186.108C1709.4 168.804 1722.37 155.385 1738.61 145.851C1755.03 136.139 1773.3 131.284 1793.43 131.284C1809.14 131.284 1822.73 134.109 1834.21 139.759C1845.86 145.409 1855.12 151.942 1862.01 159.358C1864.18 161.638 1874.45 158.564 1874.45 155.415V141.85C1874.45 139.525 1876.34 137.64 1878.66 137.64H1913.38C1917.04 137.64 1920 140.605 1920 144.261V348.461C1920 352.118 1917.04 355.082 1913.38 355.082H1880.71ZM1730.93 246.494C1730.93 262.208 1734.38 275.804 1741.26 287.281C1748.15 298.758 1757.06 307.674 1768.01 314.031C1779.13 320.21 1790.95 323.3 1803.49 323.3C1816.9 323.3 1828.91 320.122 1839.5 313.766C1850.09 307.409 1858.48 298.493 1864.66 287.016C1870.84 275.362 1873.92 261.855 1873.92 246.494C1873.92 231.132 1870.84 217.713 1864.66 206.236C1858.48 194.583 1850.09 185.578 1839.5 179.222C1828.91 172.689 1816.9 169.422 1803.49 169.422C1790.95 169.422 1779.13 172.6 1768.01 178.957C1757.06 185.313 1748.15 194.23 1741.26 205.707C1734.38 217.184 1730.93 230.779 1730.93 246.494Z" fill="white"/>
</svg>
